<svg id="svg" xmlns="http://www.w3.org/2000/svg" xmlns:xlink="http://www.w3.org/1999/xlink" width="400" height="400" viewBox="0, 0, 400,400"><g id="svgg"><path id="path0" d="M237.024 58.250 C 226.239 64.467,204.029 77.290,202.167 78.374 C 189.193 85.932,181.920 109.674,188.218 123.913 C 188.832 125.302,191.901 130.742,195.950 137.619 C 197.223 139.780,200.009 144.601,202.143 148.333 C 204.277 152.065,207.277 157.262,208.809 159.881 C 210.342 162.500,214.252 169.250,217.498 174.881 C 230.738 197.849,233.899 203.237,234.411 203.717 C 235.523 204.756,242.157 206.548,242.750 205.970 C 242.874 205.849,246.780 203.566,251.429 200.897 C 266.939 191.993,267.573 191.608,267.962 190.833 C 268.298 190.166,269.762 184.373,269.762 183.711 C 269.762 183.398,266.790 178.188,256.847 161.071 C 253.576 155.440,250.440 150.030,249.878 149.048 C 249.317 148.065,245.506 141.476,241.410 134.405 C 226.300 108.315,227.549 110.655,228.275 109.797 C 228.504 109.527,231.262 107.840,234.405 106.048 C 237.548 104.256,242.369 101.479,245.119 99.878 C 247.869 98.276,252.583 95.551,255.595 93.822 C 261.845 90.234,262.026 90.094,262.504 88.483 C 263.012 86.772,263.028 86.828,261.047 83.447 C 260.051 81.747,256.235 75.161,252.567 68.810 C 245.158 55.981,245.448 56.407,243.771 55.866 C 242.049 55.310,242.243 55.242,237.024 58.250 M240.170 70.429 C 240.329 70.530,241.946 73.180,243.765 76.318 C 245.583 79.456,247.309 82.421,247.600 82.905 C 248.790 84.888,250.139 83.918,230.714 95.056 C 217.640 102.553,217.181 102.972,216.272 108.240 C 215.439 113.068,214.597 111.239,229.291 136.548 C 232.789 142.571,236.538 149.054,237.622 150.952 C 238.706 152.851,242.703 159.762,246.504 166.310 C 257.625 185.466,256.957 184.172,256.133 184.935 C 255.070 185.919,242.644 192.857,241.944 192.857 C 240.934 192.857,240.576 192.284,229.522 172.976 C 227.648 169.702,223.682 162.845,220.710 157.738 C 217.738 152.631,213.401 145.131,211.072 141.071 C 208.743 137.012,206.333 132.833,205.717 131.786 C 198.986 120.345,198.298 118.830,197.619 113.960 C 196.753 107.760,199.895 96.671,203.867 91.905 C 206.137 89.182,206.649 88.861,232.143 74.182 C 239.554 69.914,239.442 69.967,240.170 70.429 M62.976 96.991 C 62.060 97.559,58.202 99.882,54.405 102.153 C 47.832 106.085,42.304 109.410,33.571 114.682 C 31.411 115.986,27.508 118.324,24.898 119.877 C 18.223 123.850,18.615 123.320,18.112 129.048 C 17.991 130.423,17.767 132.595,17.614 133.874 C 17.283 136.648,16.896 135.721,21.710 143.690 C 23.609 146.833,27.081 152.612,29.427 156.533 C 31.772 160.454,34.400 164.846,35.267 166.295 C 36.133 167.743,38.210 171.179,39.881 173.929 C 43.005 179.069,50.657 191.808,57.186 202.738 C 59.220 206.143,63.216 212.786,66.066 217.500 C 68.916 222.214,71.975 227.304,72.864 228.810 C 73.753 230.315,77.934 237.280,82.154 244.286 C 86.374 251.292,94.801 265.327,100.880 275.476 C 106.958 285.625,112.586 295.000,113.385 296.310 C 114.184 297.619,116.706 301.791,118.989 305.580 C 126.096 317.375,129.058 321.041,136.577 327.345 C 147.215 336.265,166.525 345.077,176.905 345.749 C 182.779 346.129,185.274 346.204,185.145 345.995 C 185.077 345.884,185.172 345.794,185.357 345.794 C 185.542 345.794,185.644 345.874,185.584 345.971 C 185.465 346.163,185.921 346.138,186.310 345.932 C 186.440 345.862,187.298 345.784,188.214 345.758 C 202.073 345.362,211.484 342.242,226.786 332.973 C 230.190 330.910,234.369 328.393,236.071 327.379 C 239.274 325.471,254.086 316.578,260.357 312.797 C 262.321 311.612,265.459 309.750,267.329 308.658 C 269.200 307.567,271.557 306.150,272.567 305.510 C 274.854 304.063,285.078 297.892,294.048 292.547 C 297.780 290.323,302.012 287.783,303.452 286.902 C 304.893 286.021,307.196 284.631,308.571 283.813 C 313.577 280.835,318.723 277.752,332.275 269.612 C 345.385 261.738,348.495 259.892,355.476 255.843 C 360.462 252.951,364.105 250.716,365.357 249.782 C 366.705 248.775,369.635 247.041,370.367 246.815 C 370.843 246.669,376.097 243.328,377.964 241.984 C 378.992 241.245,379.410 240.403,381.849 234.167 C 383.663 229.527,383.662 229.603,382.007 226.888 C 378.604 221.305,370.230 207.423,368.444 204.405 C 367.360 202.571,365.272 199.089,363.806 196.667 C 362.339 194.244,360.410 191.030,359.520 189.524 C 352.939 178.395,353.267 178.770,349.762 178.362 C 348.649 178.233,346.613 177.986,345.238 177.814 C 341.009 177.283,340.051 177.360,338.551 178.352 C 337.842 178.821,335.762 180.087,333.929 181.167 C 332.095 182.246,329.202 183.985,327.500 185.030 C 325.798 186.076,324.030 187.114,323.571 187.339 C 321.758 188.225,312.013 194.042,310.119 195.368 C 309.333 195.918,306.869 197.437,304.643 198.743 C 302.417 200.049,299.845 201.580,298.929 202.145 C 298.012 202.710,296.137 203.839,294.762 204.653 C 293.387 205.468,289.744 207.658,286.667 209.520 C 283.589 211.382,275.071 216.499,267.738 220.892 C 260.405 225.284,253.065 229.702,251.429 230.710 C 247.809 232.938,244.461 234.959,240.357 237.390 C 238.655 238.399,236.005 239.986,234.469 240.916 C 232.932 241.847,229.075 244.154,225.897 246.043 C 220.631 249.173,213.224 253.630,199.286 262.054 C 189.327 268.073,188.042 268.810,187.502 268.810 C 186.425 268.810,180.955 267.369,179.899 266.807 C 179.306 266.492,178.396 266.162,177.877 266.075 C 176.621 265.863,177.360 266.992,165.685 247.439 C 163.475 243.738,160.990 239.613,160.161 238.272 C 159.332 236.931,158.061 234.815,157.336 233.571 C 156.611 232.327,154.813 229.327,153.341 226.905 C 151.869 224.482,147.711 217.571,144.102 211.548 C 140.493 205.524,135.991 198.024,134.098 194.881 C 132.205 191.738,129.918 187.896,129.016 186.344 C 128.115 184.791,127.176 183.237,126.931 182.891 C 126.516 182.305,115.055 163.288,110.122 155.000 C 108.914 152.970,106.719 149.327,105.245 146.905 C 103.772 144.482,102.060 141.643,101.442 140.595 C 99.861 137.918,90.787 122.748,89.050 119.881 C 86.686 115.978,83.142 110.036,81.736 107.619 C 77.907 101.035,77.150 100.214,73.690 98.894 C 72.774 98.544,70.766 97.739,69.228 97.105 C 65.705 95.653,65.155 95.642,62.976 96.991 M164.393 100.214 C 164.184 100.412,153.246 106.738,135.505 116.920 C 127.236 121.666,128.016 120.862,127.006 125.688 C 126.396 128.604,126.370 128.930,126.699 129.498 C 126.897 129.840,128.294 132.262,129.804 134.881 C 131.314 137.500,133.852 141.872,135.442 144.596 C 137.033 147.320,138.766 150.335,139.293 151.296 C 140.383 153.282,140.608 153.420,144.907 154.738 C 148.169 155.738,147.489 155.953,155.289 151.459 C 165.440 145.610,170.468 142.719,178.141 138.321 C 183.193 135.424,185.036 134.250,185.219 133.810 C 185.574 132.954,186.667 127.713,186.667 126.866 C 186.667 126.382,185.717 124.520,183.731 121.111 C 182.117 118.339,179.106 113.125,177.040 109.524 C 174.975 105.923,173.055 102.747,172.773 102.468 C 171.669 101.370,165.051 99.590,164.393 100.214 M71.336 115.833 C 72.597 117.929,74.365 120.891,75.264 122.417 C 76.163 123.943,78.360 127.585,80.146 130.512 C 81.933 133.439,86.187 140.494,89.600 146.190 C 93.012 151.887,97.354 159.119,99.246 162.262 C 101.139 165.405,103.417 169.235,104.308 170.774 C 105.198 172.313,106.294 174.134,106.742 174.822 C 107.189 175.509,111.117 182.018,115.469 189.286 C 119.821 196.554,124.032 203.571,124.827 204.881 C 125.622 206.190,126.754 208.065,127.343 209.048 C 127.931 210.030,129.288 212.280,130.358 214.048 C 131.428 215.815,133.536 219.298,135.042 221.786 C 136.548 224.274,139.983 230.006,142.676 234.524 C 152.062 250.273,161.547 266.040,164.163 270.238 C 164.857 271.351,166.177 273.553,167.098 275.130 C 169.482 279.218,171.402 280.804,175.959 282.453 C 184.148 285.415,189.152 283.919,205.188 273.718 C 205.674 273.409,210.357 270.610,215.595 267.499 C 220.833 264.387,225.655 261.514,226.310 261.114 C 231.703 257.822,239.792 252.952,254.762 243.983 C 264.387 238.216,274.994 231.840,278.333 229.813 C 281.673 227.787,285.798 225.302,287.500 224.292 C 289.202 223.282,292.952 221.029,295.833 219.284 C 298.714 217.540,302.196 215.451,303.571 214.642 C 304.946 213.834,308.419 211.752,311.289 210.016 C 314.158 208.280,316.783 206.738,317.122 206.589 C 317.879 206.257,328.193 200.030,330.000 198.815 C 330.720 198.330,332.542 197.207,334.048 196.320 C 335.554 195.433,338.011 193.950,339.508 193.025 C 341.686 191.679,342.271 191.410,342.434 191.683 C 342.545 191.870,343.984 194.274,345.630 197.024 C 347.276 199.774,349.128 202.881,349.745 203.929 C 350.363 204.976,351.332 206.583,351.899 207.500 C 352.467 208.417,353.593 210.292,354.402 211.667 C 355.211 213.042,356.412 215.024,357.070 216.071 C 359.327 219.661,367.143 232.829,367.131 233.022 C 367.116 233.273,362.793 236.073,360.155 237.540 C 357.346 239.102,345.921 245.914,345.476 246.293 C 345.280 246.460,343.351 247.650,341.190 248.937 C 337.054 251.402,336.278 251.870,324.007 259.308 C 319.773 261.874,309.774 267.888,301.786 272.674 C 293.798 277.459,283.565 283.598,279.048 286.317 C 274.530 289.036,269.173 292.244,267.143 293.448 C 263.009 295.898,259.967 297.725,255.238 300.595 C 251.490 302.870,251.176 303.059,233.690 313.568 C 226.357 317.976,220.143 321.661,219.881 321.758 C 219.619 321.854,218.300 322.578,216.950 323.366 C 215.601 324.155,213.779 325.054,212.903 325.364 C 212.026 325.674,210.399 326.260,209.286 326.667 C 206.377 327.728,200.075 329.266,197.024 329.659 C 190.903 330.446,189.299 330.531,182.738 330.412 L 176.071 330.291 171.945 328.958 C 160.548 325.276,151.752 320.493,142.998 313.217 C 134.804 306.407,133.457 304.533,117.740 278.095 C 116.534 276.065,113.053 270.280,110.005 265.238 C 104.185 255.610,101.734 251.521,93.380 237.500 C 90.571 232.786,87.840 228.232,87.312 227.381 C 85.576 224.587,76.219 209.068,72.095 202.143 C 69.872 198.411,67.615 194.661,67.080 193.810 C 66.544 192.958,65.443 191.137,64.633 189.762 C 62.263 185.741,59.563 181.252,57.974 178.690 C 57.162 177.381,53.947 172.024,50.829 166.786 C 42.395 152.613,35.176 140.621,32.663 136.608 L 31.210 134.288 31.943 133.909 C 32.708 133.513,54.371 120.575,63.452 115.090 C 66.333 113.350,68.770 111.948,68.866 111.975 C 68.963 112.002,70.074 113.738,71.336 115.833 M170.166 119.762 C 172.466 123.686,174.257 126.996,174.225 127.262 C 174.157 127.820,173.593 128.168,161.071 135.368 C 146.035 144.015,147.595 143.328,146.594 141.738 C 144.658 138.663,139.048 128.606,139.048 128.210 C 139.048 127.608,136.659 129.051,158.810 116.262 C 162.280 114.259,165.328 112.646,165.584 112.679 C 165.919 112.722,167.200 114.702,170.166 119.762 M275.476 113.934 C 263.959 116.302,254.553 127.806,255.833 137.957 C 258.402 158.321,283.893 164.217,296.488 147.360 C 308.371 131.455,294.853 109.951,275.476 113.934 M282.191 125.982 C 289.399 127.511,291.218 136.007,285.527 141.563 C 278.828 148.104,267.720 144.745,268.151 136.310 C 268.500 129.478,275.253 124.510,282.191 125.982 M182.899 162.148 C 165.396 164.567,155.900 183.154,165.184 196.824 C 174.370 210.352,196.643 207.964,204.406 192.619 C 212.136 177.339,199.768 159.816,182.899 162.148 M187.837 174.653 C 196.677 176.736,196.774 187.947,187.989 192.281 L 186.097 193.214 182.985 193.214 C 179.285 193.214,177.409 192.534,175.844 190.624 C 169.960 183.443,178.256 172.394,187.837 174.653 " stroke="none" fill="#04fcfc" fill-rule="evenodd"></path><path id="path1" d="M237.341 57.803 C 235.159 59.077,233.284 60.214,233.175 60.330 C 232.889 60.633,241.318 55.903,241.647 55.575 C 242.110 55.114,240.700 55.843,237.341 57.803 M244.311 56.031 C 245.395 56.518,245.651 56.865,248.238 61.344 C 249.632 63.759,250.815 65.693,250.866 65.642 C 250.950 65.558,246.873 58.404,245.863 56.863 C 245.633 56.513,245.114 56.111,244.711 55.970 C 243.757 55.638,243.516 55.675,244.311 56.031 M232.024 60.813 C 231.762 60.985,230.396 61.796,228.988 62.616 C 227.580 63.436,226.429 64.157,226.429 64.219 C 226.429 64.281,226.991 64.009,227.679 63.615 C 231.471 61.444,232.675 60.738,232.799 60.614 C 233.055 60.357,232.503 60.499,232.024 60.813 M223.333 65.813 C 220.139 67.711,211.514 72.720,205.238 76.320 C 196.873 81.118,193.204 85.006,190.144 92.314 C 189.135 94.723,189.425 94.317,191.089 90.988 C 194.825 83.516,197.131 81.231,206.190 76.023 C 220.007 68.081,225.852 64.690,226.060 64.496 C 226.633 63.962,225.640 64.441,223.333 65.813 M251.025 66.131 C 252.702 69.090,253.409 70.242,253.494 70.157 C 253.607 70.044,251.211 65.952,251.032 65.952 C 250.973 65.952,250.970 66.033,251.025 66.131 M239.473 70.407 C 240.114 70.530,240.285 70.787,243.949 77.143 C 247.004 82.443,248.095 84.238,248.095 83.965 C 248.095 83.868,246.958 81.838,245.569 79.454 C 244.179 77.070,242.554 74.262,241.958 73.214 C 240.632 70.886,240.066 70.228,239.423 70.271 C 238.975 70.300,238.980 70.313,239.473 70.407 M234.927 72.550 C 232.987 73.664,231.443 74.617,231.494 74.668 C 231.575 74.750,238.490 70.875,238.779 70.586 C 239.184 70.181,237.992 70.789,234.927 72.550 M253.830 70.991 C 254.730 72.672,262.219 85.398,262.425 85.595 C 262.727 85.885,262.031 84.480,261.303 83.333 C 260.740 82.445,258.932 79.371,255.736 73.869 C 254.652 72.003,253.718 70.476,253.660 70.476 C 253.602 70.476,253.679 70.708,253.830 70.991 M228.095 76.505 C 221.664 80.256,218.739 81.951,214.048 84.642 C 204.620 90.049,201.192 93.711,199.666 100.000 C 199.487 100.736,199.581 100.545,200.950 97.381 C 203.528 91.424,204.959 90.138,216.190 83.686 C 219.661 81.693,223.732 79.335,225.238 78.447 C 226.744 77.558,228.699 76.410,229.583 75.895 C 230.938 75.106,231.430 74.747,231.131 74.766 C 231.098 74.768,229.732 75.550,228.095 76.505 M245.220 86.385 C 243.724 87.277,241.964 88.299,241.310 88.656 C 240.655 89.012,239.851 89.522,239.524 89.789 C 238.824 90.359,239.866 89.793,244.524 87.071 C 247.512 85.325,248.376 84.762,248.066 84.762 C 247.997 84.762,246.717 85.492,245.220 86.385 M262.451 88.617 C 262.068 90.047,261.778 90.267,255.595 93.818 C 252.583 95.548,250.012 97.073,249.881 97.208 C 249.594 97.503,251.073 96.687,256.987 93.289 C 259.454 91.872,261.674 90.471,261.920 90.177 C 262.423 89.574,262.939 88.221,262.811 87.838 C 262.765 87.699,262.603 88.050,262.451 88.617 M237.381 90.996 C 236.661 91.410,234.196 92.813,231.905 94.113 C 224.984 98.038,222.857 99.292,222.857 99.446 C 222.857 99.504,222.937 99.506,223.036 99.450 C 238.054 90.889,239.176 90.232,238.798 90.240 C 238.739 90.242,238.101 90.582,237.381 90.996 M189.174 94.549 C 188.648 95.969,187.860 98.464,187.871 98.673 C 187.879 98.813,188.246 97.912,188.686 96.668 C 189.127 95.425,189.445 94.365,189.392 94.313 C 189.340 94.261,189.242 94.367,189.174 94.549 M244.455 100.272 C 241.733 101.858,239.553 103.204,239.612 103.262 C 239.670 103.321,240.130 103.111,240.633 102.796 C 241.136 102.480,242.190 101.847,242.976 101.387 C 243.762 100.928,245.557 99.879,246.964 99.056 C 249.150 97.778,249.768 97.365,249.464 97.385 C 249.432 97.387,247.177 98.686,244.455 100.272 M220.912 100.375 C 218.860 101.612,216.378 104.977,216.446 106.429 C 216.455 106.625,216.602 106.405,216.774 105.939 C 217.667 103.514,219.537 101.324,221.625 100.260 C 222.172 99.981,222.619 99.701,222.619 99.638 C 222.619 99.411,222.238 99.576,220.912 100.375 M163.810 100.274 C 161.305 101.712,157.696 103.819,155.644 105.040 C 154.361 105.804,153.260 106.429,153.197 106.429 C 153.135 106.429,152.417 106.841,151.601 107.346 C 150.786 107.850,148.244 109.334,145.952 110.642 C 128.549 120.582,128.356 120.696,127.956 121.307 C 127.602 121.847,126.311 127.343,126.495 127.527 C 126.554 127.585,126.843 126.478,127.138 125.067 C 128.009 120.897,126.838 121.891,139.311 114.726 C 145.386 111.236,152.071 107.387,154.167 106.174 C 166.638 98.950,164.995 99.549,168.816 100.835 C 170.180 101.295,171.407 101.634,171.541 101.589 C 171.972 101.446,166.321 99.761,165.466 99.779 C 165.013 99.788,164.268 100.011,163.810 100.274 M186.799 102.275 C 186.709 102.753,186.684 103.192,186.742 103.250 C 186.800 103.308,186.921 102.965,187.011 102.487 C 187.100 102.009,187.126 101.570,187.068 101.512 C 187.010 101.454,186.889 101.797,186.799 102.275 M172.599 102.321 C 172.986 102.682,176.078 107.798,179.472 113.690 C 182.865 119.583,185.872 124.780,186.153 125.238 C 186.809 126.306,186.798 126.966,186.066 130.398 C 185.209 134.419,185.380 134.176,182.073 136.057 C 180.474 136.965,175.149 140.027,170.238 142.860 C 165.327 145.694,158.397 149.692,154.837 151.744 C 151.277 153.797,148.124 155.476,147.830 155.476 C 147.138 155.476,142.068 153.895,140.833 153.294 C 139.946 152.862,139.919 152.860,140.433 153.273 C 141.102 153.812,146.833 155.714,147.783 155.714 C 148.200 155.714,149.707 154.993,151.672 153.853 C 158.832 149.699,161.121 148.378,162.143 147.811 C 163.576 147.015,172.003 142.164,175.714 139.999 C 177.351 139.044,179.387 137.866,180.238 137.382 C 185.949 134.133,185.419 134.728,186.298 130.584 C 187.221 126.236,187.289 126.585,184.650 122.143 C 182.493 118.511,178.084 110.891,175.351 106.071 C 173.423 102.671,172.715 101.667,172.246 101.667 C 172.025 101.667,172.155 101.907,172.599 102.321 M233.929 106.337 C 231.048 107.986,228.530 109.502,228.333 109.704 C 227.958 110.092,228.344 109.885,231.274 108.123 C 232.172 107.584,232.937 107.143,232.975 107.143 C 233.115 107.143,238.936 103.758,239.155 103.549 C 239.629 103.097,239.018 103.423,233.929 106.337 M198.214 105.000 C 198.124 105.412,198.100 105.798,198.160 105.859 C 198.221 105.919,198.339 105.627,198.423 105.208 C 198.621 104.216,198.429 104.024,198.214 105.000 M186.042 106.544 C 185.918 107.525,185.891 108.248,185.983 108.151 C 186.171 107.952,186.542 104.762,186.376 104.762 C 186.317 104.762,186.167 105.564,186.042 106.544 M197.912 107.143 C 197.912 107.601,197.961 107.789,198.021 107.560 C 198.081 107.330,198.081 106.955,198.021 106.726 C 197.961 106.497,197.912 106.685,197.912 107.143 M215.824 109.634 C 215.732 110.371,215.708 111.026,215.771 111.088 C 215.834 111.151,215.957 110.596,216.044 109.853 C 216.131 109.111,216.155 108.457,216.097 108.399 C 216.039 108.341,215.916 108.896,215.824 109.634 M185.810 112.143 C 185.810 114.173,185.847 115.003,185.891 113.988 C 185.936 112.973,185.936 111.312,185.891 110.298 C 185.847 109.283,185.810 110.113,185.810 112.143 M197.679 109.405 C 197.682 109.929,197.730 110.115,197.787 109.819 C 197.844 109.522,197.842 109.094,197.783 108.866 C 197.723 108.639,197.676 108.881,197.679 109.405 M197.455 111.786 C 197.456 112.571,197.501 112.864,197.554 112.436 C 197.606 112.008,197.605 111.365,197.551 111.008 C 197.497 110.650,197.453 111.000,197.455 111.786 M228.095 111.064 C 228.095 111.357,230.991 116.469,231.097 116.363 C 231.146 116.315,230.490 115.056,229.640 113.567 C 228.791 112.078,228.095 110.951,228.095 111.064 M165.483 112.773 C 165.893 112.884,166.092 113.174,167.310 115.431 C 167.783 116.307,168.355 117.292,168.582 117.619 C 169.054 118.301,173.245 125.494,173.757 126.502 C 174.133 127.243,173.831 127.792,172.714 128.401 C 171.504 129.061,168.933 130.524,165.119 132.725 C 162.893 134.010,160.696 135.277,160.238 135.542 C 159.780 135.806,158.815 136.346,158.095 136.742 C 157.375 137.137,156.411 137.693,155.952 137.976 C 153.982 139.194,147.878 142.619,147.679 142.619 C 147.388 142.619,146.559 141.287,143.191 135.412 C 141.633 132.692,140.121 130.067,139.832 129.579 C 139.072 128.294,139.145 127.928,140.298 127.250 C 141.183 126.729,147.618 123.038,148.935 122.296 C 153.150 119.919,164.960 112.976,164.896 112.912 C 164.849 112.865,161.612 114.671,157.703 116.926 C 153.794 119.181,148.185 122.411,145.238 124.104 C 139.298 127.517,138.971 127.748,139.106 128.455 C 139.230 129.099,146.569 141.881,147.172 142.500 C 147.746 143.091,146.676 143.643,161.667 135.019 C 176.184 126.667,174.849 127.777,173.363 125.291 C 172.993 124.673,171.482 122.077,170.004 119.524 C 166.330 113.174,165.965 112.615,165.511 112.647 C 165.185 112.670,165.181 112.691,165.483 112.773 M216.203 113.452 C 216.199 114.246,220.919 123.095,221.347 123.095 C 221.407 123.095,221.410 123.015,221.354 122.917 C 218.182 117.400,216.954 115.130,216.619 114.167 C 216.392 113.512,216.205 113.190,216.203 113.452 M275.595 113.697 L 274.405 114.014 275.595 113.852 C 276.250 113.763,278.322 113.691,280.200 113.692 C 282.078 113.693,283.364 113.624,283.057 113.537 C 282.057 113.256,276.828 113.368,275.595 113.697 M285.357 114.277 C 286.274 114.520,287.325 114.836,287.694 114.979 C 288.539 115.306,288.825 115.302,288.256 114.971 C 287.657 114.623,284.751 113.807,284.167 113.823 C 283.905 113.830,284.440 114.034,285.357 114.277 M272.675 114.397 C 271.237 114.846,270.871 114.998,270.978 115.102 C 271.029 115.153,271.821 114.943,272.738 114.636 C 274.485 114.051,274.431 113.848,272.675 114.397 M268.667 116.102 C 261.437 119.904,255.521 128.531,255.736 134.956 C 255.747 135.308,255.911 134.741,256.100 133.697 C 257.524 125.804,261.763 120.042,268.929 116.258 C 269.976 115.705,270.716 115.249,270.572 115.245 C 270.428 115.241,269.570 115.627,268.667 116.102 M290.686 116.339 C 293.996 118.252,296.835 121.210,298.826 124.821 C 299.205 125.509,299.517 125.973,299.519 125.853 C 299.536 125.006,296.642 120.879,294.747 119.048 C 293.496 117.838,290.282 115.704,289.167 115.341 C 288.905 115.256,289.588 115.705,290.686 116.339 M198.131 116.667 C 198.131 116.863,198.276 117.399,198.452 117.857 C 198.629 118.315,198.773 118.530,198.773 118.333 C 198.773 118.137,198.629 117.601,198.452 117.143 C 198.276 116.685,198.131 116.470,198.131 116.667 M231.242 116.786 C 232.153 118.574,243.905 138.555,243.994 138.467 C 244.061 138.400,244.004 138.208,243.869 138.041 C 243.733 137.875,243.413 137.363,243.158 136.905 C 242.903 136.446,241.914 134.732,240.962 133.095 C 240.010 131.458,239.044 129.798,238.815 129.405 C 237.558 127.240,234.603 122.145,233.223 119.762 C 232.350 118.256,231.521 116.917,231.379 116.786 C 231.207 116.627,231.161 116.627,231.242 116.786 M186.460 119.286 C 186.454 119.613,186.602 120.202,186.787 120.595 L 187.123 121.310 186.975 120.595 C 186.894 120.202,186.747 119.613,186.648 119.286 L 186.470 118.690 186.460 119.286 M198.826 118.860 C 198.766 119.488,201.923 125.714,202.301 125.714 C 202.369 125.714,201.966 124.884,201.405 123.869 C 200.481 122.195,199.863 120.960,199.110 119.286 C 198.962 118.958,198.835 118.767,198.826 118.860 M187.154 121.605 C 187.137 122.049,188.351 124.983,188.621 125.150 C 188.751 125.230,188.732 125.061,188.578 124.775 C 188.425 124.488,188.045 123.592,187.733 122.782 C 187.421 121.972,187.161 121.442,187.154 121.605 M221.429 123.427 C 221.429 123.479,222.446 125.258,223.690 127.381 C 224.935 129.504,225.952 131.277,225.952 131.321 C 225.952 131.365,226.666 132.613,227.539 134.093 C 232.077 141.792,234.692 146.279,235.575 147.881 C 235.979 148.614,236.499 149.471,236.732 149.785 C 237.645 151.023,236.378 148.752,231.127 139.736 C 228.198 134.708,224.862 128.961,223.711 126.964 C 221.857 123.745,221.429 123.081,221.429 123.427 M188.813 125.553 C 188.809 125.791,190.004 127.857,190.147 127.857 C 190.253 127.857,189.476 126.323,189.060 125.714 C 188.926 125.518,188.815 125.445,188.813 125.553 M277.024 126.080 C 276.126 126.391,276.119 126.400,276.905 126.241 C 283.637 124.873,288.982 128.746,288.676 134.769 C 288.610 136.061,288.611 136.064,288.843 135.119 C 290.204 129.553,282.972 124.022,277.024 126.080 M202.436 126.071 C 202.504 126.202,204.109 128.988,206.001 132.262 C 207.894 135.536,210.226 139.580,211.183 141.250 C 212.140 142.920,212.968 144.286,213.023 144.286 C 213.165 144.286,211.890 141.967,209.162 137.262 C 207.872 135.036,205.924 131.666,204.835 129.773 C 203.746 127.880,202.733 126.219,202.583 126.082 C 202.423 125.936,202.362 125.931,202.436 126.071 M299.524 126.250 C 299.524 126.283,299.743 126.845,300.010 127.500 C 300.478 128.648,300.473 128.030,300.004 126.796 C 299.819 126.309,299.523 125.972,299.524 126.250 M273.430 127.581 C 267.592 131.379,266.288 138.713,270.738 142.714 C 271.853 143.717,274.031 144.772,274.949 144.754 C 275.174 144.750,274.716 144.526,273.932 144.256 C 266.292 141.629,266.533 131.336,274.329 127.359 C 275.207 126.911,275.457 126.667,275.037 126.667 C 274.926 126.667,274.203 127.078,273.430 127.581 M190.238 128.138 C 190.238 128.215,191.095 129.749,192.143 131.548 C 193.190 133.347,194.048 134.854,194.048 134.896 C 194.048 135.082,197.663 140.952,197.777 140.952 C 197.847 140.952,197.665 140.551,197.372 140.060 C 197.080 139.568,195.447 136.756,193.744 133.810 C 190.823 128.755,190.238 127.809,190.238 128.138 M17.912 129.524 C 17.912 129.982,17.961 130.170,18.021 129.940 C 18.081 129.711,18.081 129.336,18.021 129.107 C 17.961 128.878,17.912 129.065,17.912 129.524 M126.429 129.364 C 126.429 129.466,127.059 130.641,127.829 131.977 C 128.599 133.312,129.468 134.833,129.759 135.357 C 130.050 135.881,131.071 137.649,132.027 139.286 C 132.983 140.923,135.002 144.405,136.514 147.024 C 139.224 151.718,140.478 153.693,139.621 151.918 C 139.403 151.467,137.194 147.616,134.712 143.361 C 132.230 139.105,129.497 134.385,128.639 132.871 C 126.976 129.937,126.429 129.068,126.429 129.364 M300.909 131.071 C 300.998 131.857,301.059 133.518,301.045 134.762 C 301.024 136.480,301.064 136.795,301.210 136.071 C 301.494 134.657,301.447 132.929,301.077 131.190 L 300.747 129.643 300.909 131.071 M288.333 136.476 C 288.333 139.058,283.932 143.342,280.175 144.415 C 279.122 144.716,279.071 144.754,279.846 144.659 C 282.120 144.379,285.800 141.828,287.254 139.524 C 287.933 138.446,288.684 136.462,288.487 136.265 C 288.402 136.180,288.333 136.275,288.333 136.476 M255.760 138.810 C 255.760 139.268,255.898 140.179,256.066 140.833 C 256.468 142.397,256.473 141.744,256.075 139.643 C 255.874 138.577,255.760 138.276,255.760 138.810 M300.135 140.159 C 298.076 147.346,292.497 152.999,284.524 155.977 C 282.501 156.732,282.556 156.909,284.595 156.207 C 290.846 154.056,296.381 149.314,298.903 143.950 C 299.809 142.023,300.793 139.164,300.673 138.804 C 300.628 138.671,300.386 139.281,300.135 140.159 M244.121 138.988 C 248.011 145.833,251.075 151.126,251.252 151.310 C 251.602 151.670,250.831 150.212,248.861 146.786 C 247.883 145.083,246.814 143.208,246.487 142.619 C 245.424 140.705,244.254 138.810,244.135 138.810 C 244.072 138.810,244.065 138.890,244.121 138.988 M197.862 141.369 C 197.865 141.467,198.086 141.815,198.353 142.143 L 198.838 142.738 198.461 141.964 C 198.102 141.229,197.851 140.979,197.862 141.369 M256.441 142.276 C 256.329 144.559,261.090 151.247,264.472 153.557 C 266.479 154.928,271.411 156.945,272.618 156.888 C 272.815 156.878,272.119 156.627,271.071 156.329 C 264.646 154.503,259.694 150.023,257.144 143.727 C 256.764 142.790,256.448 142.137,256.441 142.276 M199.115 143.452 C 199.313 143.845,199.969 145.000,200.571 146.019 C 201.174 147.037,201.667 147.915,201.667 147.968 C 201.667 148.022,202.647 149.760,203.845 151.831 C 205.043 153.901,206.292 156.077,206.619 156.667 C 206.947 157.256,207.574 158.303,208.012 158.993 C 208.451 159.683,208.810 160.289,208.810 160.341 C 208.810 160.392,209.560 161.678,210.476 163.198 C 211.393 164.718,212.143 166.003,212.143 166.054 C 212.143 166.104,212.694 167.093,213.367 168.251 C 214.040 169.410,215.524 171.964,216.665 173.929 C 221.206 181.751,221.722 182.619,221.825 182.619 C 221.884 182.619,221.888 182.539,221.834 182.440 C 221.031 180.998,211.842 165.093,209.762 161.548 C 208.226 158.929,205.226 153.732,203.095 150.000 C 199.669 144.001,198.039 141.319,199.115 143.452 M213.173 144.702 C 213.232 144.801,214.453 146.917,215.888 149.405 C 217.322 151.893,220.581 157.518,223.129 161.905 C 225.678 166.292,228.977 172.001,230.461 174.592 C 231.944 177.183,233.199 179.261,233.249 179.211 C 233.299 179.161,232.359 177.417,231.159 175.334 C 229.960 173.252,228.778 171.193,228.533 170.760 C 227.491 168.917,226.393 167.019,222.374 160.119 C 222.146 159.726,220.650 157.155,219.050 154.405 C 214.078 145.856,213.286 144.524,213.175 144.524 C 213.116 144.524,213.115 144.604,213.173 144.702 M276.369 144.934 C 276.795 144.987,277.491 144.987,277.917 144.934 C 278.342 144.881,277.994 144.838,277.143 144.838 C 276.292 144.838,275.943 144.881,276.369 144.934 M237.475 151.130 C 237.692 151.555,238.177 152.426,238.553 153.065 C 238.930 153.704,239.585 154.856,240.009 155.625 C 240.432 156.394,241.662 158.524,242.742 160.357 C 243.821 162.190,245.851 165.673,247.253 168.095 C 248.655 170.518,249.913 172.607,250.049 172.738 C 250.432 173.107,250.261 172.804,243.601 161.336 C 237.911 151.539,236.418 149.051,237.475 151.130 M251.834 152.440 C 252.083 152.866,254.734 157.422,257.726 162.564 C 260.717 167.707,263.218 171.861,263.283 171.796 C 263.348 171.731,263.283 171.536,263.139 171.362 C 262.995 171.189,262.244 169.927,261.471 168.559 C 260.697 167.191,258.967 164.196,257.625 161.905 C 256.283 159.613,254.972 157.363,254.712 156.905 C 253.360 154.528,251.606 151.667,251.501 151.667 C 251.435 151.667,251.585 152.015,251.834 152.440 M280.833 156.905 L 279.881 157.075 280.714 157.085 C 281.173 157.091,281.815 157.010,282.143 156.905 C 282.908 156.660,282.202 156.660,280.833 156.905 M273.929 157.169 C 274.837 157.345,280.139 157.431,279.643 157.262 C 279.512 157.218,277.958 157.137,276.190 157.083 C 274.308 157.026,273.371 157.061,273.929 157.169 M179.865 162.486 C 172.295 164.444,166.327 169.378,163.290 176.190 C 162.794 177.304,162.389 178.375,162.389 178.571 C 162.389 178.768,162.754 178.043,163.200 176.961 C 166.430 169.120,173.860 163.431,182.520 162.168 C 183.708 161.995,183.780 161.960,182.976 161.946 C 182.452 161.936,181.052 162.179,179.865 162.486 M186.925 161.991 C 186.979 162.038,187.667 162.136,188.452 162.210 C 189.340 162.292,189.655 162.269,189.286 162.147 C 188.698 161.955,186.733 161.824,186.925 161.991 M191.166 162.758 C 191.873 162.948,192.500 163.056,192.558 162.998 C 192.700 162.855,190.956 162.380,190.357 162.398 C 190.095 162.406,190.459 162.568,191.166 162.758 M195.499 164.334 C 200.262 166.761,204.009 171.018,205.728 175.952 C 206.280 177.535,206.824 178.506,206.453 177.246 C 204.642 171.094,199.073 164.905,194.048 163.462 C 193.720 163.368,194.374 163.761,195.499 164.334 M263.401 172.321 C 264.875 175.063,266.886 178.246,265.808 176.131 C 265.169 174.876,263.526 172.143,263.411 172.143 C 263.353 172.143,263.348 172.223,263.401 172.321 M250.608 173.834 C 251.358 175.285,253.354 178.571,253.485 178.571 C 253.558 178.571,253.381 178.170,253.091 177.679 C 252.801 177.188,252.085 175.955,251.499 174.940 C 250.450 173.122,249.863 172.393,250.608 173.834 M183.690 174.500 C 183.295 174.588,184.092 174.659,185.476 174.659 C 187.232 174.660,187.693 174.608,187.024 174.487 C 185.885 174.279,184.666 174.284,183.690 174.500 M190.000 175.614 C 191.452 176.439,192.529 177.504,193.354 178.929 C 194.092 180.204,194.303 180.237,193.658 178.976 C 192.751 177.202,190.262 175.002,189.167 175.005 C 189.036 175.005,189.411 175.280,190.000 175.614 M179.524 176.008 C 177.388 177.246,173.993 181.215,174.573 181.795 C 174.618 181.840,174.962 181.289,175.338 180.571 C 176.181 178.960,177.817 177.330,179.784 176.141 C 181.589 175.049,181.370 174.937,179.524 176.008 M266.673 178.036 C 266.964 178.527,267.737 179.866,268.390 181.012 C 269.549 183.046,270.167 183.864,269.379 182.321 C 268.636 180.869,266.401 177.143,266.272 177.143 C 266.201 177.143,266.382 177.545,266.673 178.036 M253.611 179.001 C 253.879 179.649,256.311 183.768,256.383 183.696 C 256.484 183.595,253.795 178.810,253.637 178.810 C 253.579 178.810,253.567 178.896,253.611 179.001 M161.809 180.685 C 161.600 181.604,161.436 182.603,161.445 182.904 C 161.455 183.206,161.664 182.492,161.911 181.319 C 162.159 180.146,162.322 179.147,162.275 179.100 C 162.227 179.053,162.018 179.766,161.809 180.685 M206.786 182.466 C 206.786 184.398,206.855 185.731,206.941 185.429 C 207.138 184.731,207.135 180.581,206.936 179.656 C 206.853 179.270,206.786 180.535,206.786 182.466 M233.602 180.060 C 233.759 180.354,234.550 181.720,235.360 183.095 C 236.171 184.470,237.708 187.110,238.776 188.961 C 240.951 192.729,241.126 192.933,242.069 192.791 C 242.726 192.692,242.725 192.690,241.985 192.655 C 241.211 192.618,240.584 191.767,238.239 187.566 C 237.653 186.517,235.222 182.358,234.059 180.417 C 233.482 179.453,233.134 179.181,233.602 180.060 M194.362 182.619 C 194.362 183.470,194.405 183.818,194.458 183.393 C 194.511 182.967,194.511 182.271,194.458 181.845 C 194.405 181.420,194.362 181.768,194.362 182.619 M174.041 183.486 C 173.171 187.673,176.552 193.119,180.000 193.087 C 180.196 193.085,179.714 192.823,178.929 192.504 C 175.493 191.109,173.475 187.250,174.262 183.579 C 174.411 182.882,174.487 182.265,174.431 182.208 C 174.374 182.152,174.198 182.727,174.041 183.486 M222.739 184.405 C 223.239 185.321,224.398 187.357,225.314 188.929 C 226.230 190.500,227.915 193.393,229.058 195.357 C 234.060 203.954,234.650 204.762,235.919 204.762 C 236.124 204.762,235.819 204.521,235.241 204.226 C 234.099 203.643,233.827 203.212,225.539 188.810 C 222.473 183.482,220.802 180.853,222.739 184.405 M255.918 184.757 C 255.572 185.087,254.267 185.929,253.018 186.628 C 251.107 187.698,249.303 188.863,250.119 188.501 C 251.195 188.023,255.965 185.142,256.308 184.763 C 256.944 184.061,256.653 184.056,255.918 184.757 M161.262 185.476 C 161.262 186.196,161.306 186.491,161.361 186.131 C 161.416 185.771,161.416 185.182,161.361 184.821 C 161.306 184.461,161.262 184.756,161.262 185.476 M193.982 184.911 C 193.377 187.935,190.462 191.082,186.911 192.543 C 186.187 192.840,185.756 193.086,185.952 193.089 C 188.759 193.132,194.965 186.680,194.232 184.481 C 194.175 184.312,194.063 184.506,193.982 184.911 M268.958 187.173 C 268.760 188.165,268.952 188.357,269.167 187.381 C 269.257 186.969,269.281 186.583,269.221 186.522 C 269.160 186.462,269.042 186.754,268.958 187.173 M161.452 187.996 C 161.465 188.378,161.567 188.958,161.678 189.286 C 161.815 189.687,161.836 189.493,161.743 188.690 C 161.588 187.351,161.416 186.940,161.452 187.996 M205.992 188.492 C 205.831 189.095,205.741 189.630,205.793 189.682 C 205.844 189.733,206.023 189.287,206.190 188.690 C 206.358 188.094,206.447 187.558,206.390 187.501 C 206.332 187.443,206.153 187.889,205.992 188.492 M246.251 190.517 C 244.385 191.586,242.894 192.497,242.937 192.540 C 243.013 192.616,249.423 188.989,249.700 188.713 C 250.038 188.375,249.447 188.684,246.251 190.517 M204.896 191.575 C 202.767 196.462,199.067 200.284,193.717 203.125 C 191.213 204.454,191.126 204.677,193.585 203.462 C 199.157 200.708,204.114 195.367,205.583 190.536 C 205.887 189.537,205.585 189.994,204.896 191.575 M267.922 191.011 C 267.655 191.584,267.211 191.851,253.095 199.941 C 248.185 202.756,244.060 205.170,243.929 205.306 C 243.641 205.605,245.536 204.571,250.524 201.710 C 268.637 191.315,268.868 191.170,268.272 190.574 C 268.217 190.519,268.060 190.716,267.922 191.011 M162.155 191.112 C 162.102 192.301,164.423 196.452,166.488 198.863 C 168.415 201.113,173.409 204.562,174.673 204.516 C 174.787 204.512,173.901 203.998,172.704 203.374 C 167.938 200.891,164.955 197.578,162.810 192.388 C 162.457 191.533,162.162 190.959,162.155 191.112 M189.405 204.893 C 188.488 205.200,187.905 205.458,188.109 205.464 C 188.527 205.478,191.429 204.533,191.429 204.383 C 191.429 204.233,191.196 204.291,189.405 204.893 M175.723 204.868 C 176.186 205.038,176.936 205.242,177.389 205.321 C 177.843 205.400,177.571 205.254,176.786 204.997 C 175.198 204.478,174.403 204.381,175.723 204.868 M237.143 205.119 C 237.601 205.296,238.137 205.440,238.333 205.440 C 238.530 205.440,238.315 205.296,237.857 205.119 C 237.399 204.943,236.863 204.798,236.667 204.798 C 236.470 204.798,236.685 204.943,237.143 205.119 M179.782 205.802 C 180.006 205.999,182.124 206.115,182.005 205.923 C 181.935 205.808,181.383 205.714,180.780 205.714 C 180.176 205.714,179.727 205.754,179.782 205.802 M184.048 205.930 C 184.048 206.124,185.931 206.009,186.171 205.801 C 186.225 205.753,185.770 205.714,185.159 205.714 C 184.548 205.714,184.048 205.811,184.048 205.930 M182.679 206.117 C 182.908 206.176,183.283 206.176,183.512 206.117 C 183.741 206.057,183.554 206.008,183.095 206.008 C 182.637 206.008,182.449 206.057,182.679 206.117 M383.389 229.762 C 383.389 230.220,383.438 230.408,383.497 230.179 C 383.557 229.949,383.557 229.574,383.497 229.345 C 383.438 229.116,383.389 229.304,383.389 229.762 M169.524 278.929 C 169.968 279.387,170.385 279.762,170.451 279.762 C 170.516 279.762,170.206 279.387,169.762 278.929 C 169.318 278.470,168.901 278.095,168.835 278.095 C 168.770 278.095,169.080 278.470,169.524 278.929 M134.405 304.762 C 134.916 305.286,135.388 305.714,135.454 305.714 C 135.519 305.714,135.154 305.286,134.643 304.762 C 134.131 304.238,133.659 303.810,133.594 303.810 C 133.528 303.810,133.893 304.238,134.405 304.762 M137.857 308.646 C 137.857 308.687,138.205 309.035,138.631 309.420 L 139.405 310.119 138.705 309.345 C 138.054 308.624,137.857 308.462,137.857 308.646 M189.349 330.409 C 189.710 330.464,190.246 330.462,190.539 330.406 C 190.832 330.349,190.536 330.304,189.881 330.306 C 189.226 330.308,188.987 330.354,189.349 330.409 M185.147 345.940 C 185.366 346.160,187.332 346.193,187.881 345.986 C 188.301 345.827,188.000 345.779,186.746 345.802 C 185.808 345.819,185.088 345.881,185.147 345.940 " stroke="none" fill="#08f4f4" fill-rule="evenodd"></path><path id="path2" d="M232.143 60.207 C 227.625 62.796,221.571 66.284,218.690 67.958 C 215.810 69.631,210.560 72.665,207.024 74.700 C 199.374 79.101,198.182 79.917,196.089 82.177 C 189.616 89.168,185.473 100.773,185.476 111.905 C 185.479 120.819,186.149 122.571,195.724 138.690 C 196.735 140.393,199.487 145.161,201.840 149.286 C 204.192 153.411,207.061 158.393,208.214 160.357 C 211.243 165.514,216.466 174.539,222.268 184.643 C 230.008 198.120,233.466 203.888,234.082 204.345 C 234.891 204.946,240.582 206.667,241.759 206.667 C 242.894 206.667,242.897 206.665,248.690 203.348 C 269.034 191.699,268.582 191.997,268.901 189.997 C 268.994 189.417,269.333 188.007,269.654 186.865 C 270.722 183.066,271.163 184.004,256.740 159.405 C 254.514 155.607,250.732 149.071,248.336 144.881 C 245.941 140.690,241.391 132.815,238.225 127.381 C 235.060 121.946,231.706 116.161,230.772 114.524 C 228.881 111.208,228.433 110.536,228.242 110.727 C 228.095 110.873,229.305 113.074,233.210 119.762 C 234.090 121.268,235.617 123.893,236.605 125.595 C 238.962 129.659,238.953 129.642,240.962 133.095 C 241.914 134.732,242.891 136.420,243.133 136.845 C 243.374 137.271,243.780 137.987,244.035 138.437 C 244.290 138.887,244.754 139.663,245.066 140.163 C 245.379 140.663,245.960 141.661,246.357 142.381 C 247.738 144.881,251.015 150.610,252.623 153.333 C 253.512 154.839,254.452 156.446,254.712 156.905 C 254.973 157.363,256.283 159.613,257.625 161.905 C 258.967 164.196,260.675 167.143,261.421 168.452 C 262.168 169.762,263.022 171.262,263.321 171.786 C 264.204 173.335,265.683 175.889,267.389 178.810 C 270.255 183.718,270.144 183.117,269.044 187.752 C 268.068 191.868,268.741 191.236,259.966 196.281 C 249.320 202.401,248.141 203.078,247.190 203.612 C 246.706 203.884,245.452 204.593,244.405 205.187 C 242.085 206.504,241.496 206.533,238.214 205.486 C 233.920 204.116,234.479 204.617,231.430 199.405 C 230.204 197.310,228.539 194.470,227.730 193.095 C 226.921 191.720,225.374 189.042,224.293 187.143 C 222.107 183.306,220.009 179.677,213.367 168.251 C 212.694 167.093,212.143 166.104,212.143 166.054 C 212.143 166.003,211.393 164.718,210.476 163.198 C 209.560 161.678,208.810 160.392,208.810 160.341 C 208.810 160.289,208.451 159.683,208.012 158.993 C 207.574 158.303,206.947 157.256,206.619 156.667 C 206.292 156.077,205.043 153.901,203.845 151.831 C 202.647 149.760,201.667 148.031,201.667 147.987 C 201.667 147.944,200.902 146.584,199.967 144.966 C 199.032 143.348,198.082 141.702,197.857 141.310 C 197.632 140.917,196.683 139.331,195.748 137.787 C 194.813 136.242,194.048 134.944,194.048 134.901 C 194.048 134.858,193.357 133.635,192.512 132.182 C 187.684 123.874,186.965 122.224,186.169 117.619 C 185.031 111.030,186.333 101.090,189.179 94.643 C 189.352 94.250,189.780 93.232,190.129 92.381 C 193.043 85.279,196.893 81.110,204.643 76.665 C 207.000 75.314,210.804 73.115,213.095 71.779 C 218.484 68.639,224.802 64.995,226.312 64.157 C 226.965 63.794,228.250 63.047,229.167 62.498 C 230.083 61.949,231.423 61.181,232.143 60.790 C 233.535 60.035,241.003 55.712,241.171 55.564 C 241.225 55.516,241.064 55.481,240.813 55.487 C 240.562 55.493,236.661 57.617,232.143 60.207 M244.446 55.866 C 244.994 56.060,245.628 56.505,245.860 56.859 C 246.462 57.777,250.952 65.517,250.952 65.637 C 250.952 65.692,251.308 66.295,251.743 66.976 C 252.177 67.657,252.876 68.842,253.296 69.609 C 253.716 70.376,254.820 72.304,255.749 73.895 C 256.678 75.485,258.188 78.071,259.105 79.643 C 260.022 81.214,261.012 82.877,261.306 83.339 C 262.631 85.419,262.912 86.224,262.810 87.638 C 262.638 90.014,262.464 90.160,253.970 95.041 C 249.792 97.441,245.664 99.822,244.795 100.332 C 241.472 102.281,234.872 106.094,233.333 106.952 C 230.630 108.461,228.067 110.051,228.172 110.156 C 228.386 110.371,234.743 106.826,247.024 99.645 C 250.429 97.654,254.768 95.139,256.667 94.057 C 263.104 90.388,263.105 90.386,263.122 87.258 C 263.129 85.816,263.026 85.281,262.606 84.574 C 260.462 80.963,252.579 67.414,249.902 62.738 C 246.387 56.599,245.498 55.464,244.230 55.495 L 243.452 55.514 244.446 55.866 M235.259 72.634 C 233.241 73.804,231.557 74.762,231.518 74.762 C 231.478 74.762,230.397 75.388,229.116 76.154 C 225.178 78.506,221.313 80.759,215.476 84.103 C 208.318 88.205,207.478 88.750,205.572 90.534 C 202.421 93.481,200.015 98.244,198.586 104.364 C 197.731 108.026,198.080 107.885,199.077 104.167 C 200.404 99.216,200.566 98.684,200.855 98.307 C 200.995 98.125,201.634 96.933,202.276 95.658 C 202.918 94.383,203.796 92.937,204.228 92.444 C 204.659 91.951,205.105 91.440,205.218 91.310 C 206.106 90.278,209.468 88.118,215.913 84.435 C 218.838 82.764,222.910 80.405,224.961 79.193 C 231.954 75.059,239.230 70.952,239.560 70.952 C 239.742 70.952,240.256 71.622,240.702 72.440 C 242.800 76.284,246.749 83.027,247.160 83.468 C 247.869 84.228,247.748 84.410,245.831 85.462 C 244.847 86.002,242.463 87.385,240.533 88.535 C 238.603 89.686,233.168 92.816,228.455 95.492 C 217.457 101.737,217.002 102.159,215.917 107.127 C 214.817 112.158,215.270 113.760,220.233 122.396 C 222.373 126.120,224.924 130.560,225.902 132.262 C 226.879 133.964,228.885 137.393,230.358 139.881 C 231.832 142.369,234.781 147.458,236.911 151.190 C 239.041 154.923,243.218 162.155,246.192 167.262 C 257.332 186.391,256.317 184.329,254.940 185.028 C 254.384 185.311,251.234 187.081,247.942 188.962 C 241.349 192.727,241.612 192.615,241.243 191.807 C 241.099 191.491,239.330 188.411,237.310 184.962 C 235.291 181.512,232.111 176.012,230.243 172.738 C 226.191 165.635,224.293 162.358,220.110 155.238 C 218.378 152.292,214.632 145.810,211.785 140.833 C 208.938 135.857,205.296 129.536,203.691 126.786 C 198.582 118.027,198.086 116.636,198.049 110.960 L 198.029 107.738 197.798 109.762 C 197.387 113.369,198.263 117.779,200.117 121.429 C 200.997 123.163,201.771 124.535,204.914 129.946 C 210.398 139.384,211.289 140.930,212.082 142.381 C 212.547 143.232,213.652 145.161,214.537 146.667 C 215.422 148.173,217.454 151.655,219.052 154.405 C 220.651 157.155,222.146 159.726,222.374 160.119 C 226.393 167.019,227.491 168.917,228.533 170.760 C 228.778 171.193,229.958 173.249,231.156 175.328 C 232.354 177.408,233.333 179.151,233.333 179.202 C 233.333 179.253,233.620 179.748,233.970 180.302 C 234.680 181.425,237.283 185.854,238.239 187.566 C 240.538 191.684,241.218 192.619,241.914 192.619 C 242.549 192.619,243.814 191.938,252.738 186.788 C 257.025 184.314,256.824 184.664,255.392 182.166 C 254.821 181.171,254.082 179.875,253.749 179.286 C 252.581 177.221,245.448 164.954,242.742 160.357 C 241.663 158.524,240.513 156.542,240.188 155.952 C 238.983 153.770,236.616 149.635,236.441 149.405 C 236.341 149.274,235.939 148.577,235.549 147.857 C 234.708 146.307,232.334 142.227,227.539 134.093 C 226.666 132.613,225.952 131.365,225.952 131.321 C 225.952 131.277,224.935 129.504,223.690 127.381 C 222.446 125.258,221.429 123.492,221.429 123.456 C 221.429 123.419,220.561 121.904,219.501 120.088 C 216.711 115.306,216.435 114.695,216.039 112.430 C 215.158 107.380,217.547 101.999,221.555 100.007 C 222.206 99.684,223.381 99.032,224.167 98.559 C 224.952 98.086,226.077 97.426,226.667 97.093 C 227.256 96.760,228.863 95.843,230.238 95.057 C 231.613 94.270,234.238 92.773,236.071 91.730 C 237.905 90.687,239.940 89.508,240.595 89.109 C 241.250 88.710,243.205 87.551,244.940 86.532 C 248.427 84.486,248.366 84.571,247.429 83.082 C 247.062 82.500,245.496 79.827,243.949 77.143 C 240.159 70.570,240.094 70.473,239.461 70.491 C 239.168 70.499,237.277 71.463,235.259 72.634 M51.325 103.573 C 44.131 107.890,38.131 111.548,37.991 111.702 C 37.852 111.855,38.113 111.760,38.571 111.489 C 39.881 110.716,46.743 106.602,52.738 102.996 C 62.699 97.005,64.400 96.009,64.881 95.889 L 65.357 95.770 64.881 95.747 C 64.619 95.734,58.519 99.256,51.325 103.573 M67.488 96.308 C 68.266 96.628,68.939 96.854,68.983 96.811 C 69.098 96.696,66.756 95.713,66.384 95.720 C 66.212 95.723,66.709 95.988,67.488 96.308 M75.154 99.389 L 77.333 100.421 78.861 102.770 C 79.702 104.062,81.979 107.798,83.921 111.071 C 88.254 118.375,89.541 120.476,89.682 120.476 C 89.802 120.476,89.796 120.466,88.566 118.452 C 88.086 117.667,86.111 114.345,84.177 111.071 C 78.258 101.055,77.881 100.547,75.476 99.348 C 74.363 98.792,73.345 98.342,73.214 98.347 C 73.083 98.352,73.956 98.821,75.154 99.389 M164.286 99.445 C 163.899 99.607,157.098 103.489,153.810 105.425 C 151.253 106.929,136.508 115.429,131.818 118.102 C 127.661 120.471,127.279 120.878,126.792 123.473 C 126.597 124.509,126.333 125.839,126.205 126.429 C 125.559 129.411,125.095 128.383,134.159 144.054 C 140.329 154.722,139.523 153.775,143.576 155.112 C 148.312 156.675,147.847 156.753,153.452 153.452 C 155.286 152.373,159.464 149.964,162.738 148.099 C 178.026 139.391,185.330 135.078,185.675 134.554 C 186.231 133.706,187.129 129.898,187.281 127.738 L 187.415 125.833 186.248 123.810 C 185.290 122.149,181.293 115.396,180.470 114.048 C 180.350 113.851,178.840 111.187,177.114 108.126 C 175.388 105.066,173.751 102.300,173.475 101.980 C 172.488 100.833,165.542 98.916,164.286 99.445 M169.405 100.748 C 173.102 101.929,172.841 101.703,175.134 105.714 C 178.703 111.960,182.682 118.830,184.650 122.143 C 187.289 126.585,187.221 126.236,186.298 130.584 C 185.519 134.256,185.428 134.414,183.452 135.546 C 182.536 136.072,181.089 136.898,180.238 137.382 C 179.387 137.866,177.351 139.044,175.714 139.999 C 172.003 142.164,163.576 147.015,162.143 147.811 C 161.121 148.378,158.832 149.699,151.672 153.853 C 147.938 156.019,147.997 156.011,144.435 154.852 C 139.843 153.357,140.618 154.138,136.308 146.667 C 134.759 143.982,132.831 140.661,132.023 139.286 C 131.215 137.911,130.256 136.250,129.892 135.595 C 129.528 134.940,128.582 133.282,127.790 131.909 C 126.572 129.798,126.354 129.247,126.379 128.337 C 126.418 126.918,127.532 121.954,127.958 121.304 C 128.356 120.696,128.558 120.577,145.952 110.642 C 148.244 109.334,150.786 107.850,151.601 107.346 C 152.417 106.841,153.135 106.429,153.197 106.429 C 153.260 106.429,154.361 105.804,155.644 105.040 C 157.696 103.819,161.305 101.712,163.810 100.274 C 165.034 99.571,165.969 99.650,169.405 100.748 M61.269 116.510 C 57.318 118.888,53.997 120.932,53.888 121.053 C 53.779 121.174,54.065 121.051,54.524 120.780 C 54.982 120.508,56.321 119.721,57.500 119.030 C 58.679 118.339,61.671 116.556,64.149 115.068 C 66.627 113.580,68.802 112.419,68.983 112.488 C 69.163 112.557,69.245 112.508,69.165 112.378 C 68.900 111.949,68.503 112.157,61.269 116.510 M69.286 112.972 C 69.286 113.079,70.560 115.266,72.119 117.833 C 73.677 120.400,75.481 123.411,76.128 124.524 C 78.625 128.818,82.217 134.659,82.571 135.000 C 82.856 135.275,82.846 135.203,82.528 134.688 C 81.496 133.023,77.849 126.976,76.180 124.167 C 71.043 115.515,69.286 112.662,69.286 112.972 M157.381 117.396 C 153.125 119.880,149.375 122.058,149.048 122.238 C 148.250 122.675,141.571 126.501,140.298 127.250 C 139.145 127.928,139.072 128.294,139.832 129.579 C 140.121 130.067,141.633 132.692,143.191 135.412 C 146.559 141.287,147.388 142.619,147.679 142.619 C 147.878 142.619,153.982 139.194,155.952 137.976 C 156.411 137.693,157.375 137.137,158.095 136.742 C 158.815 136.346,159.780 135.806,160.238 135.542 C 160.696 135.277,162.893 134.010,165.119 132.725 C 168.933 130.524,171.504 129.061,172.714 128.401 C 173.831 127.792,174.133 127.243,173.757 126.502 C 173.245 125.494,169.054 118.301,168.582 117.619 C 168.355 117.292,167.783 116.307,167.310 115.431 C 166.057 113.110,165.876 112.856,165.478 112.869 C 165.281 112.876,161.637 114.913,157.381 117.396 M273.452 113.707 C 270.196 114.605,266.214 116.611,264.286 118.325 C 260.145 122.006,258.603 124.086,256.821 128.396 C 255.162 132.407,254.942 139.643,256.357 143.618 C 261.739 158.729,281.731 162.661,294.246 151.070 C 307.219 139.056,302.387 117.677,285.789 113.653 C 282.883 112.949,276.093 112.978,273.452 113.707 M166.111 114.226 C 166.316 114.717,168.091 117.883,170.055 121.262 C 172.020 124.641,173.588 127.426,173.540 127.452 C 173.492 127.479,172.810 127.828,172.024 128.229 C 171.238 128.629,165.511 131.870,159.296 135.431 C 153.081 138.992,147.885 141.902,147.748 141.898 C 147.503 141.891,139.881 128.752,139.881 128.335 C 139.881 128.217,142.667 126.526,146.071 124.578 C 155.028 119.454,161.444 115.716,162.247 115.154 C 162.834 114.744,165.435 113.365,165.667 113.341 C 165.706 113.337,165.906 113.735,166.111 114.226 M283.810 113.703 C 305.115 118.106,307.626 144.862,287.674 154.866 C 275.749 160.845,261.331 155.643,256.917 143.769 C 251.033 127.939,266.893 110.207,283.810 113.703 M31.895 115.316 C 30.525 116.144,27.281 118.084,24.685 119.627 C 22.090 121.171,19.679 122.698,19.328 123.023 L 18.690 123.612 19.524 123.033 C 20.391 122.431,23.439 120.584,30.417 116.432 C 34.010 114.293,34.755 113.810,34.455 113.810 C 34.417 113.810,33.265 114.487,31.895 115.316 M90.392 121.845 C 92.347 125.247,97.002 133.010,97.209 133.214 C 97.559 133.559,97.500 133.455,94.594 128.571 C 93.152 126.149,91.524 123.390,90.975 122.440 C 90.427 121.491,89.926 120.714,89.860 120.714 C 89.795 120.714,90.034 121.223,90.392 121.845 M50.498 122.985 C 47.653 124.692,46.610 125.394,47.857 124.763 C 48.915 124.228,53.571 121.401,53.571 121.294 C 53.571 121.138,53.655 121.092,50.498 122.985 M18.482 124.176 C 18.400 124.389,18.343 124.741,18.354 124.960 C 18.365 125.178,18.469 125.041,18.584 124.655 C 18.808 123.903,18.729 123.531,18.482 124.176 M44.934 126.286 C 43.165 127.359,41.918 128.227,42.738 127.814 C 43.504 127.428,47.143 125.189,47.143 125.103 C 47.143 124.945,47.155 124.938,44.934 126.286 M276.732 126.336 C 267.154 128.925,265.251 141.385,273.993 144.269 C 283.874 147.529,293.218 135.339,286.211 128.331 C 284.196 126.316,280.040 125.441,276.732 126.336 M282.682 126.769 C 285.318 127.710,286.938 129.309,288.079 132.095 C 290.203 137.282,282.978 145.102,276.670 144.443 C 273.336 144.094,271.375 142.991,269.980 140.680 L 268.929 138.937 268.943 136.433 C 268.982 129.860,276.508 124.566,282.682 126.769 M17.912 128.095 C 17.912 128.554,17.961 128.741,18.021 128.512 C 18.081 128.283,18.081 127.908,18.021 127.679 C 17.961 127.449,17.912 127.637,17.912 128.095 M39.464 129.538 C 38.580 130.069,37.857 130.563,37.857 130.636 C 37.857 130.709,38.098 130.614,38.393 130.424 C 38.688 130.234,39.437 129.783,40.060 129.422 C 41.018 128.865,41.393 128.567,41.131 128.573 C 41.098 128.573,40.348 129.008,39.464 129.538 M35.652 131.880 C 34.202 132.730,33.880 133.062,35.119 132.429 C 36.039 131.959,37.149 131.201,36.905 131.210 C 36.839 131.212,36.276 131.514,35.652 131.880 M17.436 133.095 C 17.436 133.554,17.485 133.741,17.545 133.512 C 17.605 133.283,17.605 132.908,17.545 132.679 C 17.485 132.449,17.436 132.637,17.436 133.095 M97.537 133.869 C 97.639 134.033,98.565 135.560,99.595 137.262 C 101.534 140.466,102.033 141.197,101.303 139.762 C 100.689 138.556,97.599 133.571,97.466 133.571 C 97.404 133.571,97.436 133.705,97.537 133.869 M17.178 135.608 C 17.146 136.708,18.174 139.048,18.689 139.048 C 18.759 139.048,18.520 138.600,18.158 138.053 C 17.727 137.402,17.450 136.601,17.356 135.732 L 17.213 134.405 17.178 135.608 M32.165 135.476 C 32.323 135.804,32.828 136.661,33.288 137.381 C 34.708 139.608,42.599 152.721,50.840 166.548 C 53.962 171.786,57.497 177.679,58.695 179.643 C 59.893 181.607,61.928 184.982,63.217 187.143 C 67.648 194.571,70.914 199.862,70.637 199.167 C 70.519 198.869,59.374 180.284,57.859 177.857 C 57.246 176.875,54.514 172.321,51.790 167.738 C 49.065 163.155,45.065 156.458,42.900 152.857 C 40.736 149.256,38.294 145.185,37.474 143.810 C 34.235 138.375,31.475 134.044,32.165 135.476 M83.278 136.250 C 83.531 136.676,85.665 140.238,88.020 144.167 C 90.375 148.095,95.016 155.863,98.333 161.429 C 101.650 166.994,105.508 173.423,106.908 175.714 C 109.793 180.439,120.989 199.070,123.219 202.857 C 126.118 207.780,130.035 214.171,130.297 214.405 C 130.444 214.536,130.400 214.375,130.201 214.048 C 130.002 213.720,129.269 212.488,128.573 211.310 C 127.877 210.131,126.484 207.827,125.479 206.190 C 124.474 204.554,119.867 196.893,115.242 189.167 C 110.616 181.440,106.545 174.690,106.194 174.167 C 105.843 173.643,104.910 172.089,104.119 170.714 C 103.329 169.339,101.135 165.643,99.243 162.500 C 97.352 159.357,92.936 151.991,89.430 146.131 C 85.923 140.271,83.001 135.476,82.936 135.476 C 82.871 135.476,83.025 135.824,83.278 136.250 M19.763 140.952 C 20.280 141.965,25.054 149.867,25.301 150.119 C 25.676 150.502,25.209 149.680,22.400 145.017 C 19.917 140.896,19.059 139.574,19.763 140.952 M105.250 146.667 C 106.452 148.696,107.622 150.625,107.850 150.952 C 108.079 151.280,109.176 153.101,110.289 155.000 C 113.983 161.303,124.064 178.065,126.254 181.548 C 126.913 182.595,128.331 184.952,129.406 186.786 C 130.480 188.619,132.748 192.423,134.445 195.238 C 136.142 198.054,138.953 202.741,140.692 205.655 C 142.431 208.568,143.904 210.952,143.965 210.952 C 144.026 210.952,144.030 210.872,143.974 210.774 C 143.600 210.116,137.977 200.710,134.759 195.357 C 132.633 191.821,130.172 187.696,129.291 186.190 C 128.409 184.685,127.110 182.523,126.403 181.388 C 123.968 177.473,121.238 172.944,115.233 162.857 C 111.920 157.292,108.699 151.935,108.075 150.952 C 107.451 149.970,106.228 147.935,105.356 146.429 C 104.484 144.923,103.612 143.530,103.418 143.333 C 103.224 143.137,104.048 144.637,105.250 146.667 M25.872 151.190 C 26.978 153.128,32.077 161.678,34.889 166.310 C 36.558 169.060,38.855 172.863,39.992 174.762 C 42.090 178.264,43.933 181.170,44.210 181.414 C 44.445 181.621,44.124 181.068,42.145 177.857 C 38.638 172.168,35.558 167.061,29.579 157.024 C 27.551 153.619,25.780 150.726,25.644 150.595 C 25.508 150.464,25.611 150.732,25.872 151.190 M178.749 162.400 C 175.570 163.346,171.536 165.409,169.881 166.937 C 164.340 172.052,161.124 177.843,161.212 182.547 C 161.233 183.672,161.238 183.664,161.541 182.024 C 165.732 159.282,196.616 154.189,205.505 174.774 C 205.988 175.893,206.447 177.205,206.524 177.689 C 206.601 178.173,206.769 179.025,206.897 179.582 C 207.931 184.061,205.881 191.796,202.494 196.198 C 189.735 212.779,163.789 207.221,161.335 187.381 C 161.278 186.923,161.262 187.351,161.299 188.333 C 161.768 200.830,176.855 209.542,190.476 205.182 C 212.378 198.171,213.159 167.822,191.581 162.271 C 187.998 161.349,182.082 161.409,178.749 162.400 M183.929 174.690 C 172.169 176.250,170.557 192.316,182.071 193.204 L 183.690 193.329 182.024 193.002 C 178.293 192.268,177.079 191.548,175.694 189.246 L 174.643 187.500 174.646 185.119 C 174.660 175.417,188.432 171.019,193.048 179.243 C 195.865 184.263,192.300 190.560,185.476 192.617 C 183.977 193.069,183.787 193.320,185.136 193.068 C 187.555 192.617,190.669 190.651,192.180 188.622 C 197.298 181.750,192.448 173.560,183.929 174.690 M339.167 177.626 C 338.643 177.892,337.893 178.385,337.500 178.721 C 336.690 179.415,337.036 179.251,338.538 178.228 C 339.341 177.681,339.940 177.493,341.271 177.370 L 342.976 177.213 341.548 177.178 C 340.530 177.153,339.845 177.282,339.167 177.626 M343.515 177.549 C 343.811 177.606,344.239 177.604,344.467 177.545 C 344.695 177.485,344.452 177.438,343.929 177.441 C 343.405 177.444,343.219 177.492,343.515 177.549 M347.086 178.026 C 347.382 178.082,347.811 178.080,348.038 178.021 C 348.266 177.961,348.024 177.915,347.500 177.917 C 346.976 177.920,346.790 177.969,347.086 178.026 M349.821 178.259 C 350.051 178.319,350.426 178.319,350.655 178.259 C 350.884 178.199,350.696 178.150,350.238 178.150 C 349.780 178.150,349.592 178.199,349.821 178.259 M351.995 178.580 C 353.309 178.973,353.593 179.382,360.159 190.357 C 360.942 191.667,362.906 194.935,364.523 197.619 C 366.141 200.304,368.127 203.625,368.938 205.000 C 370.928 208.372,381.066 225.151,382.458 227.375 C 383.070 228.354,383.571 229.005,383.571 228.822 C 383.571 228.639,383.429 228.321,383.255 228.114 C 382.726 227.485,381.355 225.226,367.570 202.262 C 354.140 179.889,353.100 178.307,351.854 178.354 C 351.380 178.372,351.398 178.401,351.995 178.580 M333.082 181.263 C 331.452 182.220,329.515 183.394,328.776 183.873 C 328.037 184.352,326.162 185.452,324.609 186.319 C 323.056 187.185,321.679 188.001,321.548 188.130 C 321.084 188.590,323.976 186.999,327.619 184.790 C 329.649 183.560,332.362 181.935,333.649 181.179 C 335.890 179.863,336.404 179.524,336.157 179.524 C 336.095 179.524,334.711 180.307,333.082 181.263 M44.335 181.786 C 44.486 182.087,58.146 205.023,60.075 208.214 C 60.867 209.524,63.652 214.131,66.264 218.452 C 68.877 222.774,71.867 227.756,72.910 229.524 C 73.952 231.292,74.917 232.845,75.053 232.976 C 75.370 233.280,74.471 231.695,71.949 227.500 C 70.847 225.667,68.336 221.488,66.368 218.214 C 64.401 214.940,61.907 210.815,60.828 209.048 C 59.748 207.280,55.677 200.476,51.781 193.929 C 47.885 187.381,44.589 181.917,44.456 181.786 C 44.296 181.627,44.256 181.627,44.335 181.786 M319.643 189.207 C 318.143 190.001,310.250 194.789,310.135 194.974 C 310.044 195.121,318.073 190.423,320.238 189.062 C 320.815 188.700,320.419 188.796,319.643 189.207 M339.762 192.998 C 338.649 193.706,336.241 195.160,334.412 196.228 C 332.583 197.297,330.601 198.517,330.007 198.941 C 329.414 199.364,327.161 200.775,325.000 202.076 C 318.515 205.980,317.638 206.527,317.728 206.617 C 317.775 206.664,319.190 205.850,320.871 204.807 C 322.553 203.765,324.893 202.347,326.071 201.658 C 327.250 200.968,328.964 199.901,329.881 199.285 C 333.212 197.050,342.229 191.806,342.312 192.056 C 342.360 192.198,342.560 192.516,342.758 192.764 C 343.062 193.144,343.060 193.094,342.744 192.440 C 342.263 191.448,342.172 191.465,339.762 192.998 M343.343 193.810 C 343.954 194.996,347.666 201.077,347.921 201.310 C 348.065 201.440,348.021 201.280,347.824 200.952 C 347.627 200.625,346.574 198.857,345.484 197.024 C 343.663 193.962,342.600 192.365,343.343 193.810 M308.922 195.800 C 308.664 195.979,306.363 197.359,303.810 198.867 C 294.527 204.349,287.659 208.506,287.262 208.881 C 286.855 209.265,288.115 208.563,290.595 207.023 C 291.905 206.210,296.780 203.280,301.429 200.512 C 306.077 197.743,309.771 195.478,309.636 195.477 C 309.502 195.477,309.180 195.622,308.922 195.800 M70.900 199.881 C 71.373 200.803,83.768 221.420,86.432 225.714 C 87.447 227.351,90.827 232.976,93.944 238.214 C 101.566 251.024,104.250 255.503,110.357 265.595 C 113.210 270.310,116.531 275.827,117.738 277.857 C 118.945 279.887,121.034 283.369,122.381 285.595 C 123.728 287.821,125.366 290.554,126.021 291.667 C 127.170 293.620,128.000 294.793,127.370 293.571 C 127.055 292.961,117.971 277.731,116.009 274.524 C 112.565 268.894,101.765 250.961,97.870 244.405 C 93.131 236.427,86.982 226.171,84.168 221.548 C 79.876 214.497,77.540 210.624,74.113 204.881 C 71.511 200.518,70.107 198.334,70.900 199.881 M348.526 202.381 C 349.598 204.328,350.291 205.476,350.394 205.476 C 350.534 205.476,349.070 202.886,348.498 202.123 C 348.130 201.631,348.134 201.669,348.526 202.381 M350.624 206.012 C 351.830 208.049,353.390 210.476,353.494 210.476 C 353.567 210.476,353.453 210.212,353.241 209.888 C 353.029 209.565,352.366 208.494,351.767 207.508 C 351.169 206.521,350.627 205.714,350.563 205.714 C 350.500 205.714,350.527 205.848,350.624 206.012 M312.262 209.555 C 309.643 211.141,306.321 213.143,304.881 214.003 C 298.357 217.901,292.341 221.519,284.405 226.316 C 279.690 229.165,274.387 232.360,272.619 233.415 C 262.753 239.302,236.788 254.896,232.500 257.510 C 229.750 259.186,226.375 261.219,225.000 262.027 C 222.145 263.704,207.391 272.520,205.595 273.621 C 197.681 278.477,192.873 281.282,191.566 281.805 C 190.694 282.154,190.021 282.481,190.071 282.531 C 190.295 282.755,193.829 281.064,196.263 279.569 C 202.070 276.002,207.161 272.928,215.476 267.971 C 220.256 265.121,227.006 261.072,230.476 258.972 C 233.946 256.872,237.857 254.514,239.167 253.733 C 240.476 252.951,242.619 251.649,243.929 250.839 C 245.238 250.029,251.935 246.014,258.810 241.918 C 273.694 233.048,272.574 233.720,288.571 224.051 C 295.577 219.816,301.899 216.012,302.619 215.598 C 307.612 212.728,317.540 206.666,317.242 206.669 C 317.122 206.671,314.881 207.969,312.262 209.555 M284.396 210.508 C 283.091 211.311,281.408 212.341,280.655 212.798 C 279.902 213.254,279.286 213.678,279.286 213.741 C 279.286 213.877,280.453 213.197,283.810 211.106 C 286.914 209.171,287.053 209.079,286.896 209.062 C 286.825 209.054,285.700 209.705,284.396 210.508 M144.295 211.667 C 144.791 212.631,147.913 217.717,148.169 217.976 C 148.517 218.330,148.371 218.068,146.308 214.643 C 144.553 211.728,143.612 210.336,144.295 211.667 M355.165 213.590 C 355.402 213.993,355.747 214.448,355.933 214.602 C 356.119 214.755,355.971 214.426,355.604 213.869 C 354.833 212.700,354.529 212.507,355.165 213.590 M267.500 220.671 C 249.433 231.504,246.219 233.454,245.991 233.714 C 245.749 233.991,247.903 232.749,251.190 230.717 C 252.827 229.705,259.765 225.529,266.607 221.437 C 277.346 215.014,279.338 213.788,278.988 213.814 C 278.955 213.816,273.786 216.902,267.500 220.671 M130.899 215.536 C 135.767 223.693,141.558 233.269,141.734 233.452 C 142.137 233.871,141.480 232.730,137.927 226.837 C 136.015 223.666,133.605 219.652,132.571 217.917 C 131.538 216.182,130.635 214.762,130.565 214.762 C 130.495 214.762,130.645 215.110,130.899 215.536 M148.690 219.048 C 148.894 219.440,149.113 219.762,149.179 219.762 C 149.244 219.762,149.132 219.440,148.929 219.048 C 148.725 218.655,148.506 218.333,148.440 218.333 C 148.375 218.333,148.487 218.655,148.690 219.048 M358.810 219.524 C 359.077 220.048,359.349 220.476,359.414 220.476 C 359.480 220.476,359.315 220.048,359.048 219.524 C 358.780 219.000,358.508 218.571,358.443 218.571 C 358.377 218.571,358.542 219.000,358.810 219.524 M149.530 220.476 C 149.957 221.298,151.474 223.571,151.595 223.571 C 151.710 223.571,151.645 223.459,150.424 221.562 C 149.421 220.004,149.053 219.558,149.530 220.476 M359.814 221.250 C 360.003 221.545,360.729 222.723,361.426 223.869 C 362.123 225.015,362.736 225.952,362.789 225.952 C 362.911 225.952,362.845 225.835,361.136 223.036 C 360.357 221.759,359.663 220.714,359.594 220.714 C 359.525 220.714,359.624 220.955,359.814 221.250 M152.160 224.643 C 152.455 225.167,152.797 225.702,152.922 225.833 C 153.279 226.207,152.464 224.699,152.021 224.167 C 151.804 223.905,151.866 224.119,152.160 224.643 M153.342 226.667 C 153.509 226.994,154.309 228.333,155.119 229.643 C 155.928 230.952,159.307 236.577,162.627 242.143 C 168.085 251.294,169.675 253.866,168.806 252.143 C 168.466 251.470,158.624 234.978,155.520 229.881 C 153.597 226.723,152.670 225.356,153.342 226.667 M363.214 226.905 C 363.417 227.298,363.637 227.619,363.703 227.619 C 363.768 227.619,363.656 227.298,363.452 226.905 C 363.249 226.512,363.029 226.190,362.964 226.190 C 362.898 226.190,363.011 226.512,363.214 226.905 M364.049 228.335 C 364.189 228.598,364.828 229.630,365.467 230.627 C 366.274 231.887,366.579 232.576,366.466 232.882 C 366.232 233.514,362.008 236.227,357.083 238.910 C 356.199 239.391,355.476 239.834,355.476 239.894 C 355.476 240.168,361.286 236.840,365.058 234.405 C 367.275 232.973,367.263 233.111,365.439 230.198 C 364.110 228.074,363.400 227.123,364.049 228.335 M383.029 231.299 C 382.473 232.466,382.513 232.676,383.108 231.701 C 383.375 231.262,383.560 230.798,383.517 230.670 C 383.475 230.543,383.255 230.825,383.029 231.299 M75.647 234.048 C 76.363 235.280,89.239 256.672,90.766 259.167 C 91.487 260.345,92.676 262.327,93.408 263.571 C 94.140 264.815,94.914 266.048,95.128 266.310 C 95.771 267.096,95.962 267.418,82.755 245.476 C 78.854 238.994,75.549 233.583,75.412 233.452 C 75.274 233.321,75.380 233.589,75.647 234.048 M142.494 234.881 C 142.861 235.536,143.881 237.250,144.759 238.690 C 145.638 240.131,147.463 243.185,148.814 245.476 C 150.165 247.768,151.859 250.607,152.578 251.786 C 154.826 255.469,157.604 260.059,162.957 268.929 C 165.802 273.643,168.391 277.821,168.711 278.214 C 169.031 278.607,168.853 278.232,168.315 277.381 C 167.777 276.530,166.511 274.440,165.502 272.738 C 162.991 268.503,155.508 256.128,153.696 253.214 C 152.881 251.905,150.949 248.690,149.402 246.071 C 144.958 238.550,142.322 234.187,142.064 233.929 C 141.933 233.798,142.127 234.226,142.494 234.881 M244.821 234.313 C 244.010 234.833,243.747 235.182,244.464 234.788 C 245.011 234.487,245.866 233.826,245.714 233.821 C 245.649 233.819,245.247 234.041,244.821 234.313 M381.117 236.236 C 380.639 237.438,380.285 238.460,380.332 238.507 C 380.379 238.554,380.811 237.610,381.291 236.410 C 381.772 235.210,382.125 234.188,382.076 234.139 C 382.027 234.091,381.596 235.034,381.117 236.236 M238.214 238.301 C 235.202 240.109,228.452 244.140,223.214 247.258 C 212.436 253.674,208.322 256.171,207.976 256.506 C 207.622 256.849,207.558 256.886,215.952 251.853 C 220.208 249.301,228.217 244.512,233.750 241.210 C 242.350 236.079,244.144 234.966,243.750 235.006 C 243.717 235.009,241.226 236.492,238.214 238.301 M349.950 243.165 C 347.762 244.502,342.084 247.940,337.331 250.805 C 332.579 253.670,327.780 256.579,326.667 257.269 C 322.473 259.868,316.952 263.200,307.143 269.053 C 292.177 277.983,286.604 281.354,286.071 281.797 C 285.469 282.298,284.117 283.096,299.405 273.930 C 306.345 269.768,313.417 265.539,315.119 264.530 C 316.821 263.522,320.196 261.485,322.619 260.003 C 328.018 256.701,335.221 252.350,338.571 250.367 C 339.946 249.553,342.196 248.183,343.571 247.321 C 344.946 246.460,347.866 244.671,350.060 243.346 C 353.392 241.333,354.415 240.651,353.988 240.725 C 353.955 240.730,352.138 241.828,349.950 243.165 M377.653 242.385 C 376.241 243.313,376.092 243.528,377.335 242.843 C 377.899 242.532,378.475 242.140,378.614 241.972 C 378.964 241.551,378.845 241.602,377.653 242.385 M375.417 243.708 C 374.527 244.191,374.581 244.392,375.476 243.929 C 375.869 243.725,376.190 243.508,376.190 243.446 C 376.190 243.293,376.165 243.302,375.417 243.708 M373.095 245.380 C 372.637 245.707,371.592 246.296,370.774 246.690 C 369.059 247.514,368.774 247.821,370.352 247.145 C 371.479 246.662,374.048 245.090,374.048 244.884 C 374.048 244.707,374.012 244.726,373.095 245.380 M368.274 247.993 C 367.384 248.476,367.438 248.677,368.333 248.214 C 368.726 248.011,369.048 247.794,369.048 247.732 C 369.048 247.579,369.022 247.587,368.274 247.993 M366.365 249.175 C 365.465 249.787,365.127 250.218,365.893 249.777 C 366.454 249.454,367.531 248.583,367.377 248.577 C 367.309 248.574,366.854 248.843,366.365 249.175 M361.071 252.637 C 358.976 253.929,356.190 255.594,354.881 256.337 C 350.112 259.041,336.887 266.886,336.548 267.211 C 336.136 267.606,337.374 266.913,341.548 264.414 C 350.280 259.185,352.069 258.134,353.266 257.530 C 355.461 256.425,365.589 250.211,365.113 250.263 C 364.985 250.277,363.167 251.346,361.071 252.637 M169.343 253.393 C 169.536 253.687,170.040 254.491,170.463 255.179 C 170.885 255.866,171.282 256.429,171.344 256.429 C 171.473 256.429,171.431 256.353,170.174 254.345 C 169.662 253.527,169.187 252.857,169.118 252.857 C 169.049 252.857,169.151 253.098,169.343 253.393 M172.171 258.036 C 173.318 260.054,176.279 264.708,176.115 264.234 C 176.037 264.010,175.345 262.831,174.577 261.615 C 173.808 260.399,172.831 258.789,172.406 258.036 C 171.980 257.283,171.578 256.667,171.513 256.667 C 171.447 256.667,171.744 257.283,172.171 258.036 M205.391 257.949 C 204.237 258.654,203.168 259.366,203.016 259.531 C 202.863 259.697,202.845 259.772,202.976 259.700 C 203.476 259.423,207.477 256.888,207.585 256.780 C 207.904 256.461,207.294 256.786,205.391 257.949 M201.605 260.327 C 200.461 261.030,200.142 261.362,201.071 260.882 C 201.818 260.496,202.825 259.777,202.619 259.777 C 202.554 259.777,202.097 260.024,201.605 260.327 M198.512 262.157 C 197.628 262.688,196.905 263.182,196.905 263.255 C 196.905 263.328,197.146 263.233,197.440 263.043 C 197.735 262.853,198.485 262.402,199.107 262.041 C 200.065 261.484,200.441 261.186,200.179 261.192 C 200.146 261.192,199.396 261.627,198.512 262.157 M193.639 265.083 C 192.039 266.033,190.646 266.902,190.543 267.015 C 190.299 267.283,190.350 267.255,193.750 265.263 C 195.354 264.322,196.667 263.504,196.667 263.443 C 196.667 263.280,196.766 263.226,193.639 265.083 M178.571 266.116 C 178.768 266.186,179.501 266.506,180.201 266.829 C 180.900 267.152,181.519 267.370,181.575 267.314 C 181.715 267.174,178.947 265.948,178.542 265.971 C 178.294 265.985,178.302 266.021,178.571 266.116 M95.544 267.083 C 96.243 268.378,99.587 273.810,99.685 273.810 C 99.757 273.810,99.662 273.568,99.472 273.274 C 99.283 272.979,98.346 271.426,97.391 269.821 C 96.435 268.217,95.607 266.905,95.551 266.905 C 95.494 266.905,95.491 266.985,95.544 267.083 M188.929 267.873 C 187.981 268.436,187.544 268.557,186.786 268.466 L 185.833 268.352 186.701 268.598 C 187.594 268.852,188.609 268.510,189.881 267.526 C 190.615 266.958,190.240 267.095,188.929 267.873 M332.766 269.409 C 329.438 271.426,328.148 272.323,330.357 271.083 C 333.253 269.458,336.656 267.284,336.131 267.393 C 336.098 267.400,334.584 268.307,332.766 269.409 M184.405 268.095 C 184.667 268.208,185.095 268.297,185.357 268.293 C 185.740 268.287,185.717 268.248,185.238 268.095 C 184.424 267.835,183.798 267.835,184.405 268.095 M328.095 272.183 C 325.403 273.844,317.193 278.819,315.476 279.829 C 314.363 280.484,313.345 281.128,313.214 281.260 C 312.839 281.638,315.469 280.125,320.000 277.356 C 322.292 275.956,325.265 274.141,326.607 273.324 C 328.718 272.039,329.257 271.664,328.988 271.668 C 328.955 271.668,328.554 271.900,328.095 272.183 M100.487 275.357 C 100.928 276.143,103.159 279.893,105.443 283.690 C 107.728 287.488,110.444 292.042,111.479 293.810 C 112.515 295.578,113.582 297.293,113.852 297.620 L 114.342 298.214 113.908 297.500 C 113.669 297.107,112.815 295.661,112.009 294.286 C 109.392 289.819,99.982 274.187,99.831 274.056 C 99.750 273.986,100.045 274.571,100.487 275.357 M170.609 280.022 C 170.781 280.301,174.041 282.232,174.143 282.115 C 174.186 282.065,173.380 281.526,172.351 280.918 C 171.322 280.311,170.538 279.907,170.609 280.022 M307.381 284.664 C 304.435 286.438,301.917 288.007,301.786 288.151 C 301.499 288.467,301.885 288.244,308.036 284.542 C 312.132 282.077,313.169 281.400,312.798 281.434 C 312.765 281.437,310.327 282.891,307.381 284.664 M266.190 293.650 C 255.649 299.978,241.209 308.655,234.102 312.933 C 226.995 317.211,220.620 320.994,219.935 321.339 C 219.251 321.684,217.712 322.541,216.517 323.242 C 215.321 323.944,214.089 324.620,213.778 324.744 C 213.468 324.868,213.364 324.977,213.546 324.985 C 213.729 324.993,215.179 324.250,216.769 323.333 C 218.360 322.417,219.736 321.667,219.828 321.667 C 219.999 321.667,244.975 306.724,247.453 305.139 C 248.214 304.652,249.981 303.580,251.382 302.755 C 252.783 301.931,256.768 299.545,260.238 297.454 C 263.708 295.362,270.726 291.156,275.833 288.106 C 284.353 283.019,285.772 282.140,285.464 282.144 C 285.405 282.145,276.732 287.323,266.190 293.650 M176.632 283.007 C 177.072 283.198,177.768 283.408,178.180 283.472 C 178.592 283.536,178.286 283.372,177.500 283.107 C 175.843 282.549,175.491 282.508,176.632 283.007 M188.095 283.111 C 187.212 283.411,187.057 283.511,187.619 283.417 C 188.434 283.280,190.113 282.654,189.643 282.662 C 189.512 282.664,188.815 282.866,188.095 283.111 M182.328 283.984 C 182.888 284.034,183.745 284.034,184.232 283.983 C 184.720 283.931,184.262 283.890,183.214 283.891 C 182.167 283.892,181.768 283.934,182.328 283.984 M295.223 291.935 C 291.892 293.915,289.060 295.645,288.929 295.779 C 288.555 296.161,300.760 289.012,301.298 288.534 C 301.893 288.005,300.833 288.599,295.223 291.935 M128.199 295.327 C 129.144 296.977,132.854 302.619,132.993 302.619 C 133.057 302.619,132.712 302.003,132.225 301.250 C 131.738 300.497,130.550 298.651,129.584 297.148 C 127.688 294.198,127.137 293.473,128.199 295.327 M287.679 296.456 C 286.867 296.976,286.604 297.325,287.321 296.931 C 287.868 296.630,288.724 295.969,288.571 295.964 C 288.506 295.962,288.104 296.183,287.679 296.456 M283.095 299.244 C 281.196 300.390,277.821 302.439,275.595 303.799 C 271.107 306.539,269.801 307.325,264.746 310.325 C 261.586 312.201,259.040 313.886,261.310 312.600 C 263.159 311.552,270.892 306.920,275.595 304.043 C 278.214 302.441,281.777 300.284,283.512 299.248 C 285.247 298.213,286.667 297.316,286.667 297.254 C 286.667 297.085,286.770 297.027,283.095 299.244 M114.566 298.810 C 114.768 299.137,115.636 300.583,116.495 302.024 C 117.354 303.464,118.238 304.857,118.459 305.119 C 118.792 305.515,118.788 305.475,118.433 304.881 C 118.198 304.488,117.270 302.935,116.369 301.429 C 115.469 299.923,114.612 298.583,114.465 298.452 C 114.319 298.321,114.364 298.482,114.566 298.810 M135.967 306.250 C 137.170 307.658,138.204 308.810,138.264 308.810 C 138.444 308.810,137.032 307.134,135.354 305.357 C 134.237 304.174,134.415 304.434,135.967 306.250 M119.429 306.786 C 119.786 307.440,120.180 308.083,120.303 308.214 C 120.656 308.587,119.608 306.604,119.170 306.071 C 118.955 305.810,119.072 306.131,119.429 306.786 M121.082 309.702 C 122.103 311.475,124.737 315.476,124.883 315.476 C 124.955 315.476,124.493 314.699,123.856 313.750 C 123.220 312.801,122.240 311.247,121.679 310.298 C 121.119 309.348,120.608 308.571,120.545 308.571 C 120.482 308.571,120.724 309.080,121.082 309.702 M139.514 310.060 C 140.501 311.111,140.714 311.300,140.714 311.121 C 140.714 311.083,140.205 310.574,139.583 309.990 L 138.452 308.929 139.514 310.060 M141.429 311.731 C 141.429 311.840,145.542 315.187,146.429 315.799 C 147.216 316.342,146.046 315.301,144.167 313.786 C 141.611 311.726,141.429 311.589,141.429 311.731 M256.054 315.508 C 252.497 317.638,250.608 318.874,252.024 318.147 C 252.690 317.804,260.044 313.368,260.194 313.218 C 260.566 312.847,259.699 313.326,256.054 315.508 M147.500 316.596 C 148.921 318.009,161.370 325.265,162.317 325.232 C 162.418 325.228,161.107 324.499,159.405 323.611 C 155.854 321.760,151.484 319.197,149.405 317.746 C 147.825 316.643,147.120 316.218,147.500 316.596 M126.401 317.581 C 126.666 317.952,127.073 318.408,127.306 318.593 C 127.539 318.777,127.374 318.473,126.940 317.917 C 126.056 316.783,125.656 316.534,126.401 317.581 M250.655 318.708 C 249.765 319.191,249.819 319.392,250.714 318.929 C 251.107 318.725,251.429 318.508,251.429 318.446 C 251.429 318.293,251.403 318.302,250.655 318.708 M248.810 319.805 C 246.743 321.089,239.116 325.713,236.310 327.383 C 234.607 328.396,230.696 330.751,227.619 332.617 C 224.542 334.483,220.901 336.639,219.529 337.409 C 218.157 338.179,217.130 338.810,217.247 338.810 C 217.605 338.810,220.550 337.121,227.024 333.205 C 230.429 331.146,234.607 328.632,236.310 327.620 C 238.012 326.607,241.387 324.572,243.810 323.096 C 246.232 321.621,248.563 320.203,248.988 319.945 C 249.414 319.688,249.762 319.434,249.762 319.381 C 249.762 319.227,249.685 319.261,248.810 319.805 M134.524 325.951 C 135.375 326.756,136.393 327.638,136.786 327.912 C 137.769 328.598,137.364 328.211,135.000 326.206 C 133.077 324.574,133.053 324.561,134.524 325.951 M162.639 325.330 C 162.858 325.534,166.267 326.907,166.350 326.825 C 166.398 326.776,165.635 326.399,164.653 325.987 C 163.012 325.299,162.385 325.094,162.639 325.330 M209.351 326.258 C 207.882 326.795,206.721 327.276,206.771 327.327 C 206.869 327.425,211.543 325.797,212.143 325.456 C 212.867 325.044,211.956 325.305,209.351 326.258 M204.762 327.738 C 204.173 327.909,203.905 328.051,204.167 328.054 C 204.429 328.056,205.071 327.917,205.595 327.745 C 206.828 327.338,206.160 327.333,204.762 327.738 M169.643 328.095 C 169.905 328.208,170.280 328.300,170.476 328.300 C 170.701 328.300,170.657 328.224,170.357 328.095 C 170.095 327.983,169.720 327.891,169.524 327.891 C 169.299 327.891,169.343 327.966,169.643 328.095 M200.714 328.690 C 199.601 328.993,198.851 329.248,199.048 329.257 C 199.244 329.266,200.369 329.018,201.548 328.706 C 202.726 328.394,203.476 328.139,203.214 328.140 C 202.952 328.140,201.827 328.388,200.714 328.690 M138.516 329.225 C 141.841 332.205,159.453 342.055,160.171 341.337 C 160.218 341.290,159.530 340.946,158.640 340.573 C 156.626 339.727,147.955 335.318,146.190 334.242 C 144.653 333.304,140.059 330.232,138.690 329.227 L 137.738 328.528 138.516 329.225 M171.667 328.653 C 171.667 328.794,174.524 329.768,174.868 329.745 C 175.006 329.735,174.583 329.536,173.929 329.303 C 172.121 328.659,171.667 328.529,171.667 328.653 M176.850 330.173 C 177.277 330.226,177.920 330.224,178.278 330.170 C 178.636 330.116,178.286 330.072,177.500 330.074 C 176.714 330.075,176.422 330.120,176.850 330.173 M180.539 330.409 C 180.901 330.464,181.437 330.462,181.729 330.406 C 182.022 330.349,181.726 330.304,181.071 330.306 C 180.417 330.308,180.177 330.354,180.539 330.409 M187.206 330.409 C 187.568 330.464,188.103 330.462,188.396 330.406 C 188.689 330.349,188.393 330.304,187.738 330.306 C 187.083 330.308,186.844 330.354,187.206 330.409 M214.106 340.180 C 213.286 340.516,212.656 340.831,212.706 340.880 C 212.826 341.000,215.296 340.025,215.583 339.745 C 215.878 339.457,215.853 339.464,214.106 340.180 M211.429 341.310 C 211.101 341.497,210.940 341.650,211.071 341.650 C 211.202 341.650,211.577 341.497,211.905 341.310 C 212.232 341.122,212.393 340.969,212.262 340.969 C 212.131 340.969,211.756 341.122,211.429 341.310 M161.310 341.918 C 161.833 342.166,162.423 342.366,162.619 342.364 C 162.815 342.361,162.440 342.149,161.786 341.894 C 160.295 341.312,160.055 341.324,161.310 341.918 M206.310 342.980 C 205.393 343.282,204.765 343.539,204.915 343.551 C 205.278 343.578,208.333 342.630,208.333 342.490 C 208.333 342.329,208.142 342.376,206.310 342.980 M202.143 344.048 C 201.664 344.201,201.641 344.240,202.024 344.245 C 202.286 344.249,202.714 344.160,202.976 344.048 C 203.583 343.787,202.957 343.787,202.143 344.048 M198.810 344.762 C 198.338 344.913,198.313 344.953,198.690 344.953 C 198.952 344.953,199.435 344.867,199.762 344.762 C 200.233 344.611,200.258 344.571,199.881 344.571 C 199.619 344.571,199.137 344.657,198.810 344.762 M170.595 345.000 C 170.857 345.113,171.232 345.205,171.429 345.205 C 171.654 345.205,171.610 345.129,171.310 345.000 C 171.048 344.887,170.673 344.795,170.476 344.795 C 170.251 344.795,170.295 344.871,170.595 345.000 M196.488 345.164 C 196.717 345.224,197.092 345.224,197.321 345.164 C 197.551 345.104,197.363 345.055,196.905 345.055 C 196.446 345.055,196.259 345.104,196.488 345.164 M172.262 345.476 C 172.524 345.589,172.952 345.678,173.214 345.674 C 173.597 345.668,173.574 345.629,173.095 345.476 C 172.281 345.215,171.655 345.215,172.262 345.476 M177.619 345.952 C 177.946 346.057,178.482 346.143,178.810 346.143 L 179.405 346.143 178.810 345.952 C 178.482 345.848,177.946 345.762,177.619 345.762 L 177.024 345.762 177.619 345.952 M187.976 345.952 C 187.605 346.112,187.711 346.157,188.452 346.157 C 188.976 346.157,189.619 346.065,189.881 345.952 C 190.252 345.793,190.146 345.748,189.405 345.748 C 188.881 345.748,188.238 345.840,187.976 345.952 M173.992 346.125 C 174.420 346.178,175.063 346.177,175.421 346.123 C 175.779 346.068,175.429 346.025,174.643 346.026 C 173.857 346.027,173.564 346.072,173.992 346.125 " stroke="none" fill="#0cecf0" fill-rule="evenodd"></path><path id="path3" d="M167.619 199.881 C 168.063 200.339,168.480 200.714,168.546 200.714 C 168.611 200.714,168.301 200.339,167.857 199.881 C 167.413 199.423,166.996 199.048,166.930 199.048 C 166.865 199.048,167.175 199.423,167.619 199.881 M182.444 205.885 C 182.806 205.940,183.341 205.938,183.634 205.882 C 183.927 205.825,183.631 205.781,182.976 205.782 C 182.321 205.784,182.082 205.830,182.444 205.885 " stroke="none" fill="#04f4fc" fill-rule="evenodd"></path><path id="path4" d="" stroke="none" fill="#08fcfc" fill-rule="evenodd"></path></g></svg>